<svg width="6" height="7" viewBox="0 0 6 7" fill="none" xmlns="http://www.w3.org/2000/svg">
<path d="M1.58825 0.205455C1.84112 0.205153 2.08637 0.291935 2.28277 0.451208L5.00742 2.70038C5.11427 2.78544 5.20056 2.8935 5.25986 3.01652C5.31917 3.13954 5.34997 3.27436 5.34997 3.41093C5.34997 3.5475 5.31917 3.68231 5.25986 3.80533C5.20056 3.92835 5.11427 4.03641 5.00742 4.12147L2.28277 6.37064C2.11874 6.50207 1.92109 6.58478 1.71234 6.60933C1.50359 6.63389 1.29215 6.59932 1.10209 6.50955C0.936917 6.43674 0.79619 6.31793 0.696719 6.1673C0.597247 6.01667 0.543236 5.84059 0.541134 5.6601L0.541134 1.16175C0.543236 0.981258 0.597247 0.80518 0.696719 0.654552C0.79619 0.503923 0.936917 0.385111 1.10209 0.312305C1.25482 0.242854 1.42048 0.206443 1.58825 0.205455Z" fill="#4094F7"/>
</svg>
