<svg width="16" height="16" viewBox="0 0 16 16" fill="none" xmlns="http://www.w3.org/2000/svg">
<path d="M14.75 3.50001H11V2.24751C10.9824 1.76738 10.7752 1.31381 10.4237 0.986231C10.0722 0.658656 9.60522 0.483806 9.12503 0.500011H6.87503C6.39485 0.483806 5.92783 0.658656 5.57635 0.986231C5.22488 1.31381 5.01763 1.76738 5.00003 2.24751V3.50001H1.25003C1.05112 3.50001 0.860353 3.57903 0.7197 3.71968C0.579048 3.86033 0.500031 4.0511 0.500031 4.25001C0.500031 4.44892 0.579048 4.63969 0.7197 4.78034C0.860353 4.92099 1.05112 5.00001 1.25003 5.00001H2.00003V13.25C2.00003 13.8467 2.23708 14.419 2.65904 14.841C3.081 15.263 3.65329 15.5 4.25003 15.5H11.75C12.3468 15.5 12.9191 15.263 13.341 14.841C13.763 14.419 14 13.8467 14 13.25V5.00001H14.75C14.9489 5.00001 15.1397 4.92099 15.2804 4.78034C15.421 4.63969 15.5 4.44892 15.5 4.25001C15.5 4.0511 15.421 3.86033 15.2804 3.71968C15.1397 3.57903 14.9489 3.50001 14.75 3.50001ZM6.50003 2.24751C6.50003 2.12751 6.65753 2.00001 6.87503 2.00001H9.12503C9.34253 2.00001 9.50003 2.12751 9.50003 2.24751V3.50001H6.50003V2.24751ZM12.5 13.25C12.5 13.4489 12.421 13.6397 12.2804 13.7803C12.1397 13.921 11.9489 14 11.75 14H4.25003C4.05112 14 3.86035 13.921 3.7197 13.7803C3.57905 13.6397 3.50003 13.4489 3.50003 13.25V5.00001H12.5V13.25Z" fill="#6E7C87"/>
</svg>
