<svg width="14" height="14" viewBox="0 0 14 14" fill="none" xmlns="http://www.w3.org/2000/svg">
<path d="M13.4787 2.87196L11.0812 0.47446C10.7683 0.180544 10.3582 0.0118996 9.92909 0.000606163C9.49994 -0.0106873 9.08161 0.136159 8.75368 0.413211L0.878678 8.28821C0.595848 8.57343 0.419744 8.94726 0.379927 9.34696L0.00367758 12.9957C-0.00810958 13.1239 0.00852012 13.2531 0.0523811 13.374C0.0962421 13.495 0.166254 13.6049 0.257428 13.6957C0.339188 13.7768 0.436152 13.841 0.54276 13.8845C0.649367 13.9281 0.763522 13.9501 0.878678 13.9495H0.957428L4.60618 13.617C5.00587 13.5771 5.37971 13.401 5.66493 13.1182L13.5399 5.24321C13.8456 4.92031 14.0108 4.4894 13.9993 4.04493C13.9878 3.60045 13.8006 3.17865 13.4787 2.87196ZM10.5037 5.79446L8.15868 3.44946L9.86493 1.69946L12.2537 4.08821L10.5037 5.79446Z" fill="#6E7C87"/>
</svg>
