<svg width="6" height="7" viewBox="0 0 6 7" fill="none" xmlns="http://www.w3.org/2000/svg">
<path d="M1.58826 0.205455C1.84112 0.205153 2.08638 0.291935 2.28278 0.451208L5.00743 2.70038C5.11427 2.78544 5.20056 2.8935 5.25987 3.01652C5.31918 3.13954 5.34998 3.27436 5.34998 3.41093C5.34998 3.5475 5.31918 3.68231 5.25987 3.80533C5.20056 3.92835 5.11427 4.03641 5.00743 4.12147L2.28278 6.37064C2.11875 6.50207 1.9211 6.58478 1.71235 6.60933C1.5036 6.63389 1.29215 6.59932 1.1021 6.50955C0.936923 6.43674 0.796196 6.31793 0.696724 6.1673C0.597253 6.01667 0.543242 5.84059 0.54114 5.6601L0.54114 1.16175C0.543242 0.981258 0.597253 0.80518 0.696724 0.654552C0.796196 0.503923 0.936923 0.385111 1.1021 0.312305C1.25482 0.242854 1.42049 0.206443 1.58826 0.205455Z" fill="#6E7C87"/>
</svg>
