<svg width="16" height="16" viewBox="0 0 16 16" fill="none" xmlns="http://www.w3.org/2000/svg">
<path d="M9 1.28846V0H7V1.28846C5.73718 1.4348 4.53081 1.85857 3.48209 2.52423L2.33334 1.46154L0.916671 2.76923L1.98292 3.75346C0.703061 5.09739 -0.00195101 6.82601 4.05529e-06 8.61539C4.05529e-06 12.6873 3.58875 16 8 16C12.4113 16 16 12.6873 16 8.61539C16 4.85615 12.9408 1.74385 9 1.28846ZM8 10.4615C7.52831 10.4614 7.07185 10.3074 6.71125 10.0267C6.35066 9.74603 6.10915 9.35672 6.02938 8.92759C5.94961 8.49845 6.03672 8.0571 6.27533 7.68151C6.51393 7.30592 6.88867 7.02026 7.33334 6.875V3.38462H8.66667V6.875C9.11133 7.02026 9.48607 7.30592 9.72468 7.68151C9.96328 8.0571 10.0504 8.49845 9.97063 8.92759C9.89086 9.35672 9.64934 9.74603 9.28875 10.0267C8.92816 10.3074 8.47169 10.4614 8 10.4615Z" fill="#6E7C87"/>
</svg>
